<?xml version="1.0" encoding="UTF-8" standalone="no"?>
<svg width="32" height="32" viewBox="0 0 32 32" xmlns="http://www.w3.org/2000/svg">
  <rect width="32" height="32" rx="8" fill="#000000"/>
  <g transform="translate(4, 4) scale(0.75)">
    <path d="M16 4a12 12 0 1 0 0 24 12 12 0 0 0 0-24zm-8 12a8 8 0 1 1 16 0 8 8 0 0 1-16 0z" fill="#00ff00"/>
    <rect x="10" y="10" width="2.5" height="5" rx="1.25" fill="#00ff00"/>
    <rect x="20" y="10" width="2.5" height="5" rx="1.25" fill="#00ff00"/>
    <path d="M10 20c0-3.314 6-3.314 6 0s6 3.314 6 0" stroke="#00ff00" stroke-width="1.5" fill="none"/>
  </g>
</svg>
