<?xml version="1.0" standalone="no"?>
<!DOCTYPE svg PUBLIC "-//W3C//DTD SVG 20010904//EN" "http://www.w3.org/TR/2001/REC-SVG-20010904/DTD/svg10.dtd">
<svg version="1.0" xmlns="http://www.w3.org/2000/svg"
 width="700.000000pt" height="700.000000pt" viewBox="0 0 700.000000 700.000000"
 preserveAspectRatio="xMidYMid meet">
<g transform="translate(0.000000,700.000000) scale(0.100000,-0.100000)"
fill="#000000" stroke="none">
<path d="M3278 6995 c-1 -2 -39 -6 -83 -9 -89 -7 -144 -13 -225 -27 -30 -5
-73 -12 -95 -15 -23 -3 -50 -8 -62 -11 -12 -2 -37 -7 -55 -10 -319 -52 -740
-212 -1038 -393 -49 -30 -92 -57 -95 -60 -3 -3 -23 -17 -45 -31 -151 -94 -398
-300 -540 -450 -21 -22 -49 -51 -63 -65 -139 -142 -334 -408 -437 -594 -15
-27 -31 -56 -36 -62 -4 -7 -8 -15 -9 -18 0 -3 -11 -25 -23 -50 -110 -222 -206
-500 -251 -725 -3 -16 -8 -37 -10 -45 -2 -8 -6 -33 -10 -55 -3 -22 -8 -51 -11
-65 -25 -132 -25 -596 0 -740 2 -14 7 -43 10 -65 3 -22 8 -51 11 -65 3 -14 7
-34 9 -45 2 -11 6 -31 9 -45 3 -14 8 -36 11 -50 3 -14 14 -54 24 -90 11 -36
21 -74 24 -85 8 -36 74 -223 105 -300 93 -227 239 -485 374 -661 37 -48 70
-90 73 -93 20 -21 118 -140 157 -190 85 -108 290 -311 404 -400 60 -47 112
-88 115 -91 3 -3 23 -17 45 -31 22 -14 47 -31 55 -37 67 -53 374 -223 509
-282 152 -66 380 -145 476 -166 11 -2 38 -8 60 -14 108 -26 259 -50 395 -62
33 -3 74 -8 90 -10 32 -5 526 -5 575 0 19 2 67 7 105 10 39 4 81 8 95 10 14 2
45 7 70 10 25 4 56 9 70 11 14 3 39 7 55 10 213 37 553 146 750 241 30 15 98
49 150 75 119 61 298 170 365 221 8 7 49 37 90 67 72 54 95 72 190 155 246 214
456 461 633 742 35 55 147 260 147 269 0 3 11 28 24 55 57 123 142 378 169 507
2 10 6 26 9 35 3 9 7 33 10 52 3 19 7 46 10 60 27 152 27 612 0 760 -2 14 -7
43 -10 65 -3 22 -8 51 -11 65 -3 14 -7 34 -9 45 -2 11 -7 31 -10 45 -3 14 -8
36 -11 50 -13 62 -62 229 -95 325 -96 276 -238 550 -415 800 -92 130 -266 334
-331 389 -8 6 -28 26 -45 44 -72 74 -240 216 -339 286 -57 40 -107 76 -112 81
-13 12 -219 137 -279 169 -27 15 -59 32 -70 39 -63 37 -339 157 -410 178 -11 3
-38 13 -60 21 -75 28 -236 75 -305 89 -16 3 -41 8 -55 11 -14 3 -41 8 -60 11
-19 3 -46 7 -60 10 -13 2 -52 7 -85 11 -33 3 -71 8 -85 10 -27 5 -531 13 -537
9z"/>
</g>
</svg>
